<?xml version="1.0" standalone="no"?>
<svg xmlns="http://www.w3.org/2000/svg" width="500" height="500"><defs><clipPath id="clip-path-dot-color"><path d="M 18 146v 16h 8a 8 8, 0, 0, 0, 0 -16" transform="rotate(-90,26,154)"/><path d="M 18 162v 16h 16v -8a 8 8, 0, 0, 0, -8 -8" transform="rotate(180,26,170)"/><path d="M 18 210v 16h 16v -8a 8 8, 0, 0, 0, -8 -8" transform="rotate(-90,26,218)"/><path d="M 18 226v 16h 16v -8a 8 8, 0, 0, 0, -8 -8" transform="rotate(180,26,234)"/><path d="M 18 274v 16h 8a 8 8, 0, 0, 0, 0 -16" transform="rotate(-90,26,282)"/><rect x="18" y="290" width="16" height="16" transform="rotate(0,26,298)"/><rect x="18" y="306" width="16" height="16" transform="rotate(0,26,314)"/><path d="M 18 322v 16h 8a 8 8, 0, 0, 0, 0 -16" transform="rotate(90,26,330)"/><rect x="34" y="162" width="16" height="16" transform="rotate(0,42,170)"/><path d="M 34 178v 16h 8a 8 8, 0, 0, 0, 0 -16" transform="rotate(90,42,186)"/><path d="M 34 210v 16h 16v -8a 8 8, 0, 0, 0, -8 -8" transform="rotate(0,42,218)"/><path d="M 34 226v 16h 16v -8a 8 8, 0, 0, 0, -8 -8" transform="rotate(90,42,234)"/><rect x="34" y="306" width="16" height="16" transform="rotate(0,42,314)"/><path d="M 34 338v 16h 8a 8 8, 0, 0, 0, 0 -16" transform="rotate(180,42,346)"/><path d="M 50 146v 16h 16v -8a 8 8, 0, 0, 0, -8 -8" transform="rotate(-90,58,154)"/><rect x="50" y="162" width="16" height="16" transform="rotate(0,58,170)"/><circle cx="58" cy="250" r="8" transform="rotate(0,58,250)"/><path d="M 50 290v 16h 8a 8 8, 0, 0, 0, 0 -16" transform="rotate(-90,58,298)"/><rect x="50" y="306" width="16" height="16" transform="rotate(0,58,314)"/><path d="M 50 338v 16h 8a 8 8, 0, 0, 0, 0 -16" transform="rotate(0,58,346)"/><path d="M 66 146v 16h 16v -8a 8 8, 0, 0, 0, -8 -8" transform="rotate(0,74,154)"/><rect x="66" y="162" width="16" height="16" transform="rotate(0,74,170)"/><rect x="66" y="178" width="16" height="16" transform="rotate(0,74,186)"/><rect x="66" y="194" width="16" height="16" transform="rotate(0,74,202)"/><rect x="66" y="210" width="16" height="16" transform="rotate(0,74,218)"/><path d="M 66 226v 16h 8a 8 8, 0, 0, 0, 0 -16" transform="rotate(90,74,234)"/><path d="M 66 258v 16h 8a 8 8, 0, 0, 0, 0 -16" transform="rotate(180,74,266)"/><rect x="66" y="306" width="16" height="16" transform="rotate(0,74,314)"/><path d="M 66 322v 16h 8a 8 8, 0, 0, 0, 0 -16" transform="rotate(90,74,330)"/><rect x="82" y="194" width="16" height="16" transform="rotate(0,90,202)"/><path d="M 82 258v 16h 16v -8a 8 8, 0, 0, 0, -8 -8" transform="rotate(0,90,266)"/><path d="M 82 274v 16h 8a 8 8, 0, 0, 0, 0 -16" transform="rotate(90,90,282)"/><rect x="82" y="306" width="16" height="16" transform="rotate(0,90,314)"/><path d="M 98 146v 16h 8a 8 8, 0, 0, 0, 0 -16" transform="rotate(180,106,154)"/><path d="M 98 178v 16h 16v -8a 8 8, 0, 0, 0, -8 -8" transform="rotate(-90,106,186)"/><rect x="98" y="194" width="16" height="16" transform="rotate(0,106,202)"/><path d="M 98 210v 16h 16v -8a 8 8, 0, 0, 0, -8 -8" transform="rotate(180,106,218)"/><rect x="98" y="306" width="16" height="16" transform="rotate(0,106,314)"/><path d="M 98 322v 16h 8a 8 8, 0, 0, 0, 0 -16" transform="rotate(90,106,330)"/><rect x="114" y="146" width="16" height="16" transform="rotate(0,122,154)"/><rect x="114" y="178" width="16" height="16" transform="rotate(0,122,186)"/><path d="M 114 210v 16h 8a 8 8, 0, 0, 0, 0 -16" transform="rotate(0,122,218)"/><circle cx="122" cy="250" r="8" transform="rotate(0,122,250)"/><path d="M 114 274v 16h 8a 8 8, 0, 0, 0, 0 -16" transform="rotate(180,122,282)"/><path d="M 114 306v 16h 8a 8 8, 0, 0, 0, 0 -16" transform="rotate(0,122,314)"/><circle cx="122" cy="346" r="8" transform="rotate(0,122,346)"/><rect x="130" y="146" width="16" height="16" transform="rotate(0,138,154)"/><rect x="130" y="178" width="16" height="16" transform="rotate(0,138,186)"/><circle cx="138" cy="234" r="8" transform="rotate(0,138,234)"/><path d="M 130 274v 16h 16v -8a 8 8, 0, 0, 0, -8 -8" transform="rotate(0,138,282)"/><path d="M 130 290v 16h 8a 8 8, 0, 0, 0, 0 -16" transform="rotate(90,138,298)"/><circle cx="154" cy="42" r="8" transform="rotate(0,154,42)"/><path d="M 146 66v 16h 8a 8 8, 0, 0, 0, 0 -16" transform="rotate(180,154,74)"/><path d="M 146 98v 16h 8a 8 8, 0, 0, 0, 0 -16" transform="rotate(-90,154,106)"/><rect x="146" y="114" width="16" height="16" transform="rotate(0,154,122)"/><rect x="146" y="130" width="16" height="16" transform="rotate(0,154,138)"/><rect x="146" y="146" width="16" height="16" transform="rotate(0,154,154)"/><rect x="146" y="178" width="16" height="16" transform="rotate(0,154,186)"/><circle cx="154" cy="218" r="8" transform="rotate(0,154,218)"/><circle cx="154" cy="266" r="8" transform="rotate(0,154,266)"/><circle cx="154" cy="330" r="8" transform="rotate(0,154,330)"/><path d="M 146 354v 16h 16v -8a 8 8, 0, 0, 0, -8 -8" transform="rotate(-90,154,362)"/><rect x="146" y="370" width="16" height="16" transform="rotate(0,154,378)"/><path d="M 146 386v 16h 8a 8 8, 0, 0, 0, 0 -16" transform="rotate(90,154,394)"/><path d="M 146 418v 16h 16v -8a 8 8, 0, 0, 0, -8 -8" transform="rotate(-90,154,426)"/><path d="M 146 434v 16h 8a 8 8, 0, 0, 0, 0 -16" transform="rotate(90,154,442)"/><path d="M 146 466v 16h 8a 8 8, 0, 0, 0, 0 -16" transform="rotate(180,154,474)"/><rect x="162" y="66" width="16" height="16" transform="rotate(0,170,74)"/><path d="M 162 82v 16h 8a 8 8, 0, 0, 0, 0 -16" transform="rotate(90,170,90)"/><path d="M 162 146v 16h 8a 8 8, 0, 0, 0, 0 -16" transform="rotate(0,170,154)"/><path d="M 162 178v 16h 8a 8 8, 0, 0, 0, 0 -16" transform="rotate(0,170,186)"/><circle cx="170" cy="234" r="8" transform="rotate(0,170,234)"/><path d="M 162 290v 16h 8a 8 8, 0, 0, 0, 0 -16" transform="rotate(-90,170,298)"/><path d="M 162 306v 16h 16v -8a 8 8, 0, 0, 0, -8 -8" transform="rotate(180,170,314)"/><path d="M 162 338v 16h 16v -8a 8 8, 0, 0, 0, -8 -8" transform="rotate(-90,170,346)"/><rect x="162" y="354" width="16" height="16" transform="rotate(0,170,362)"/><rect x="162" y="370" width="16" height="16" transform="rotate(0,170,378)"/><path d="M 162 418v 16h 8a 8 8, 0, 0, 0, 0 -16" transform="rotate(0,170,426)"/><path d="M 162 466v 16h 8a 8 8, 0, 0, 0, 0 -16" transform="rotate(0,170,474)"/><circle cx="186" cy="42" r="8" transform="rotate(0,186,42)"/><path d="M 178 66v 16h 8a 8 8, 0, 0, 0, 0 -16" transform="rotate(0,186,74)"/><path d="M 178 98v 16h 16v -8a 8 8, 0, 0, 0, -8 -8" transform="rotate(-90,186,106)"/><path d="M 178 114v 16h 8a 8 8, 0, 0, 0, 0 -16" transform="rotate(90,186,122)"/><circle cx="186" cy="170" r="8" transform="rotate(0,186,170)"/><rect x="178" y="306" width="16" height="16" transform="rotate(0,186,314)"/><rect x="178" y="322" width="16" height="16" transform="rotate(0,186,330)"/><path d="M 178 338v 16h 16v -8a 8 8, 0, 0, 0, -8 -8" transform="rotate(90,186,346)"/><rect x="178" y="370" width="16" height="16" transform="rotate(0,186,378)"/><path d="M 178 402v 16h 8a 8 8, 0, 0, 0, 0 -16" transform="rotate(180,186,410)"/><path d="M 178 434v 16h 16v -8a 8 8, 0, 0, 0, -8 -8" transform="rotate(-90,186,442)"/><path d="M 178 450v 16h 16v -8a 8 8, 0, 0, 0, -8 -8" transform="rotate(180,186,458)"/><path d="M 194 18v 16h 8a 8 8, 0, 0, 0, 0 -16" transform="rotate(180,202,26)"/><circle cx="202" cy="58" r="8" transform="rotate(0,202,58)"/><path d="M 194 82v 16h 16v -8a 8 8, 0, 0, 0, -8 -8" transform="rotate(-90,202,90)"/><rect x="194" y="98" width="16" height="16" transform="rotate(0,202,106)"/><path d="M 194 210v 16h 16v -8a 8 8, 0, 0, 0, -8 -8" transform="rotate(-90,202,218)"/><path d="M 194 226v 16h 8a 8 8, 0, 0, 0, 0 -16" transform="rotate(90,202,234)"/><path d="M 194 306v 16h 8a 8 8, 0, 0, 0, 0 -16" transform="rotate(0,202,314)"/><path d="M 194 354v 16h 8a 8 8, 0, 0, 0, 0 -16" transform="rotate(-90,202,362)"/><rect x="194" y="370" width="16" height="16" transform="rotate(0,202,378)"/><rect x="194" y="386" width="16" height="16" transform="rotate(0,202,394)"/><path d="M 194 402v 16h 16v -8a 8 8, 0, 0, 0, -8 -8" transform="rotate(90,202,410)"/><path d="M 194 434v 16h 16v -8a 8 8, 0, 0, 0, -8 -8" transform="rotate(0,202,442)"/><path d="M 194 450v 16h 16v -8a 8 8, 0, 0, 0, -8 -8" transform="rotate(90,202,458)"/><path d="M 210 18v 16h 16v -8a 8 8, 0, 0, 0, -8 -8" transform="rotate(0,218,26)"/><path d="M 210 34v 16h 16v -8a 8 8, 0, 0, 0, -8 -8" transform="rotate(180,218,42)"/><path d="M 210 82v 16h 16v -8a 8 8, 0, 0, 0, -8 -8" transform="rotate(0,218,90)"/><rect x="210" y="98" width="16" height="16" transform="rotate(0,218,106)"/><rect x="210" y="114" width="16" height="16" transform="rotate(0,218,122)"/><path d="M 210 130v 16h 16v -8a 8 8, 0, 0, 0, -8 -8" transform="rotate(180,218,138)"/><circle cx="218" cy="170" r="8" transform="rotate(0,218,170)"/><path d="M 210 210v 16h 8a 8 8, 0, 0, 0, 0 -16" transform="rotate(0,218,218)"/><path d="M 210 242v 16h 8a 8 8, 0, 0, 0, 0 -16" transform="rotate(180,218,250)"/><path d="M 210 290v 16h 8a 8 8, 0, 0, 0, 0 -16" transform="rotate(180,218,298)"/><path d="M 210 322v 16h 8a 8 8, 0, 0, 0, 0 -16" transform="rotate(180,218,330)"/><path d="M 210 370v 16h 16v -8a 8 8, 0, 0, 0, -8 -8" transform="rotate(0,218,378)"/><rect x="210" y="386" width="16" height="16" transform="rotate(0,218,394)"/><path d="M 210 418v 16h 8a 8 8, 0, 0, 0, 0 -16" transform="rotate(180,218,426)"/><rect x="226" y="34" width="16" height="16" transform="rotate(0,234,42)"/><path d="M 226 66v 16h 8a 8 8, 0, 0, 0, 0 -16" transform="rotate(180,234,74)"/><path d="M 226 98v 16h 8a 8 8, 0, 0, 0, 0 -16" transform="rotate(0,234,106)"/><rect x="226" y="130" width="16" height="16" transform="rotate(0,234,138)"/><path d="M 226 146v 16h 16v -8a 8 8, 0, 0, 0, -8 -8" transform="rotate(180,234,154)"/><path d="M 226 178v 16h 16v -8a 8 8, 0, 0, 0, -8 -8" transform="rotate(-90,234,186)"/><path d="M 226 194v 16h 8a 8 8, 0, 0, 0, 0 -16" transform="rotate(90,234,202)"/><path d="M 226 226v 16h 8a 8 8, 0, 0, 0, 0 -16" transform="rotate(-90,234,234)"/><rect x="226" y="242" width="16" height="16" transform="rotate(0,234,250)"/><rect x="226" y="258" width="16" height="16" transform="rotate(0,234,266)"/><rect x="226" y="274" width="16" height="16" transform="rotate(0,234,282)"/><rect x="226" y="290" width="16" height="16" transform="rotate(0,234,298)"/><rect x="226" y="306" width="16" height="16" transform="rotate(0,234,314)"/><rect x="226" y="322" width="16" height="16" transform="rotate(0,234,330)"/><rect x="226" y="338" width="16" height="16" transform="rotate(0,234,346)"/><path d="M 226 354v 16h 8a 8 8, 0, 0, 0, 0 -16" transform="rotate(90,234,362)"/><path d="M 226 386v 16h 8a 8 8, 0, 0, 0, 0 -16" transform="rotate(0,234,394)"/><path d="M 226 418v 16h 8a 8 8, 0, 0, 0, 0 -16" transform="rotate(0,234,426)"/><path d="M 226 450v 16h 8a 8 8, 0, 0, 0, 0 -16" transform="rotate(180,234,458)"/><path d="M 242 34v 16h 8a 8 8, 0, 0, 0, 0 -16" transform="rotate(0,250,42)"/><rect x="242" y="66" width="16" height="16" transform="rotate(0,250,74)"/><path d="M 242 114v 16h 8a 8 8, 0, 0, 0, 0 -16" transform="rotate(-90,250,122)"/><rect x="242" y="130" width="16" height="16" transform="rotate(0,250,138)"/><path d="M 242 146v 16h 16v -8a 8 8, 0, 0, 0, -8 -8" transform="rotate(90,250,154)"/><path d="M 242 178v 16h 8a 8 8, 0, 0, 0, 0 -16" transform="rotate(0,250,186)"/><circle cx="250" cy="218" r="8" transform="rotate(0,250,218)"/><rect x="242" y="242" width="16" height="16" transform="rotate(0,250,250)"/><rect x="242" y="290" width="16" height="16" transform="rotate(0,250,298)"/><path d="M 242 338v 16h 8a 8 8, 0, 0, 0, 0 -16" transform="rotate(0,250,346)"/><circle cx="250" cy="378" r="8" transform="rotate(0,250,378)"/><path d="M 242 450v 16h 16v -8a 8 8, 0, 0, 0, -8 -8" transform="rotate(0,250,458)"/><path d="M 242 466v 16h 8a 8 8, 0, 0, 0, 0 -16" transform="rotate(90,250,474)"/><path d="M 258 66v 16h 16v -8a 8 8, 0, 0, 0, -8 -8" transform="rotate(0,266,74)"/><rect x="258" y="82" width="16" height="16" transform="rotate(0,266,90)"/><path d="M 258 98v 16h 8a 8 8, 0, 0, 0, 0 -16" transform="rotate(90,266,106)"/><path d="M 258 162v 16h 8a 8 8, 0, 0, 0, 0 -16" transform="rotate(180,266,170)"/><path d="M 258 226v 16h 16v -8a 8 8, 0, 0, 0, -8 -8" transform="rotate(-90,266,234)"/><path d="M 258 242v 16h 16v -8a 8 8, 0, 0, 0, -8 -8" transform="rotate(90,266,250)"/><path d="M 258 274v 16h 8a 8 8, 0, 0, 0, 0 -16" transform="rotate(-90,266,282)"/><rect x="258" y="290" width="16" height="16" transform="rotate(0,266,298)"/><path d="M 258 306v 16h 16v -8a 8 8, 0, 0, 0, -8 -8" transform="rotate(180,266,314)"/><circle cx="266" cy="394" r="8" transform="rotate(0,266,394)"/><path d="M 274 18v 16h 8a 8 8, 0, 0, 0, 0 -16" transform="rotate(-90,282,26)"/><path d="M 274 34v 16h 8a 8 8, 0, 0, 0, 0 -16" transform="rotate(90,282,42)"/><path d="M 274 114v 16h 8a 8 8, 0, 0, 0, 0 -16" transform="rotate(-90,282,122)"/><path d="M 274 130v 16h 8a 8 8, 0, 0, 0, 0 -16" transform="rotate(90,282,138)"/><rect x="274" y="162" width="16" height="16" transform="rotate(0,282,170)"/><path d="M 274 210v 16h 16v -8a 8 8, 0, 0, 0, -8 -8" transform="rotate(-90,282,218)"/><path d="M 274 226v 16h 16v -8a 8 8, 0, 0, 0, -8 -8" transform="rotate(90,282,234)"/><path d="M 274 258v 16h 8a 8 8, 0, 0, 0, 0 -16" transform="rotate(180,282,266)"/><path d="M 274 306v 16h 16v -8a 8 8, 0, 0, 0, -8 -8" transform="rotate(0,282,314)"/><rect x="274" y="322" width="16" height="16" transform="rotate(0,282,330)"/><rect x="274" y="338" width="16" height="16" transform="rotate(0,282,346)"/><path d="M 274 354v 16h 16v -8a 8 8, 0, 0, 0, -8 -8" transform="rotate(180,282,362)"/><path d="M 274 450v 16h 16v -8a 8 8, 0, 0, 0, -8 -8" transform="rotate(-90,282,458)"/><path d="M 274 466v 16h 16v -8a 8 8, 0, 0, 0, -8 -8" transform="rotate(180,282,474)"/><path d="M 290 50v 16h 8a 8 8, 0, 0, 0, 0 -16" transform="rotate(180,298,58)"/><path d="M 290 82v 16h 16v -8a 8 8, 0, 0, 0, -8 -8" transform="rotate(-90,298,90)"/><path d="M 290 98v 16h 16v -8a 8 8, 0, 0, 0, -8 -8" transform="rotate(180,298,106)"/><rect x="290" y="162" width="16" height="16" transform="rotate(0,298,170)"/><path d="M 290 210v 16h 8a 8 8, 0, 0, 0, 0 -16" transform="rotate(0,298,218)"/><path d="M 290 242v 16h 8a 8 8, 0, 0, 0, 0 -16" transform="rotate(-90,298,250)"/><rect x="290" y="258" width="16" height="16" transform="rotate(0,298,266)"/><path d="M 290 274v 16h 16v -8a 8 8, 0, 0, 0, -8 -8" transform="rotate(180,298,282)"/><path d="M 290 338v 16h 16v -8a 8 8, 0, 0, 0, -8 -8" transform="rotate(0,298,346)"/><rect x="290" y="354" width="16" height="16" transform="rotate(0,298,362)"/><rect x="290" y="370" width="16" height="16" transform="rotate(0,298,378)"/><path d="M 290 386v 16h 8a 8 8, 0, 0, 0, 0 -16" transform="rotate(90,298,394)"/><path d="M 290 418v 16h 8a 8 8, 0, 0, 0, 0 -16" transform="rotate(-90,298,426)"/><rect x="290" y="434" width="16" height="16" transform="rotate(0,298,442)"/><rect x="290" y="450" width="16" height="16" transform="rotate(0,298,458)"/><rect x="290" y="466" width="16" height="16" transform="rotate(0,298,474)"/><circle cx="314" cy="26" r="8" transform="rotate(0,314,26)"/><rect x="306" y="50" width="16" height="16" transform="rotate(0,314,58)"/><rect x="306" y="82" width="16" height="16" transform="rotate(0,314,90)"/><rect x="306" y="98" width="16" height="16" transform="rotate(0,314,106)"/><rect x="306" y="114" width="16" height="16" transform="rotate(0,314,122)"/><rect x="306" y="130" width="16" height="16" transform="rotate(0,314,138)"/><rect x="306" y="146" width="16" height="16" transform="rotate(0,314,154)"/><path d="M 306 162v 16h 16v -8a 8 8, 0, 0, 0, -8 -8" transform="rotate(90,314,170)"/><circle cx="314" cy="202" r="8" transform="rotate(0,314,202)"/><path d="M 306 258v 16h 16v -8a 8 8, 0, 0, 0, -8 -8" transform="rotate(0,314,266)"/><path d="M 306 274v 16h 16v -8a 8 8, 0, 0, 0, -8 -8" transform="rotate(90,314,282)"/><circle cx="314" cy="314" r="8" transform="rotate(0,314,314)"/><path d="M 306 354v 16h 8a 8 8, 0, 0, 0, 0 -16" transform="rotate(0,314,362)"/><path d="M 306 434v 16h 16v -8a 8 8, 0, 0, 0, -8 -8" transform="rotate(0,314,442)"/><rect x="306" y="450" width="16" height="16" transform="rotate(0,314,458)"/><rect x="306" y="466" width="16" height="16" transform="rotate(0,314,474)"/><rect x="322" y="50" width="16" height="16" transform="rotate(0,330,58)"/><rect x="322" y="66" width="16" height="16" transform="rotate(0,330,74)"/><rect x="322" y="82" width="16" height="16" transform="rotate(0,330,90)"/><rect x="322" y="130" width="16" height="16" transform="rotate(0,330,138)"/><circle cx="330" cy="298" r="8" transform="rotate(0,330,298)"/><path d="M 322 402v 16h 16v -8a 8 8, 0, 0, 0, -8 -8" transform="rotate(-90,330,410)"/><path d="M 322 418v 16h 16v -8a 8 8, 0, 0, 0, -8 -8" transform="rotate(180,330,426)"/><path d="M 322 466v 16h 8a 8 8, 0, 0, 0, 0 -16" transform="rotate(0,330,474)"/><circle cx="346" cy="26" r="8" transform="rotate(0,346,26)"/><path d="M 338 50v 16h 8a 8 8, 0, 0, 0, 0 -16" transform="rotate(0,346,58)"/><path d="M 338 82v 16h 8a 8 8, 0, 0, 0, 0 -16" transform="rotate(0,346,90)"/><path d="M 338 114v 16h 8a 8 8, 0, 0, 0, 0 -16" transform="rotate(-90,346,122)"/><path d="M 338 130v 16h 16v -8a 8 8, 0, 0, 0, -8 -8" transform="rotate(90,346,138)"/><path d="M 338 242v 16h 8a 8 8, 0, 0, 0, 0 -16" transform="rotate(-90,346,250)"/><path d="M 338 258v 16h 8a 8 8, 0, 0, 0, 0 -16" transform="rotate(90,346,266)"/><path d="M 338 338v 16h 16v -8a 8 8, 0, 0, 0, -8 -8" transform="rotate(-90,346,346)"/><rect x="338" y="354" width="16" height="16" transform="rotate(0,346,362)"/><rect x="338" y="370" width="16" height="16" transform="rotate(0,346,378)"/><rect x="338" y="386" width="16" height="16" transform="rotate(0,346,394)"/><rect x="338" y="402" width="16" height="16" transform="rotate(0,346,410)"/><rect x="338" y="418" width="16" height="16" transform="rotate(0,346,426)"/><rect x="338" y="434" width="16" height="16" transform="rotate(0,346,442)"/><path d="M 338 450v 16h 16v -8a 8 8, 0, 0, 0, -8 -8" transform="rotate(180,346,458)"/><path d="M 354 146v 16h 8a 8 8, 0, 0, 0, 0 -16" transform="rotate(180,362,154)"/><circle cx="362" cy="186" r="8" transform="rotate(0,362,186)"/><path d="M 354 210v 16h 16v -8a 8 8, 0, 0, 0, -8 -8" transform="rotate(-90,362,218)"/><path d="M 354 226v 16h 8a 8 8, 0, 0, 0, 0 -16" transform="rotate(90,362,234)"/><path d="M 354 274v 16h 8a 8 8, 0, 0, 0, 0 -16" transform="rotate(180,362,282)"/><circle cx="362" cy="314" r="8" transform="rotate(0,362,314)"/><rect x="354" y="338" width="16" height="16" transform="rotate(0,362,346)"/><rect x="354" y="402" width="16" height="16" transform="rotate(0,362,410)"/><path d="M 354 450v 16h 16v -8a 8 8, 0, 0, 0, -8 -8" transform="rotate(0,362,458)"/><path d="M 354 466v 16h 8a 8 8, 0, 0, 0, 0 -16" transform="rotate(90,362,474)"/><rect x="370" y="146" width="16" height="16" transform="rotate(0,378,154)"/><path d="M 370 194v 16h 16v -8a 8 8, 0, 0, 0, -8 -8" transform="rotate(-90,378,202)"/><rect x="370" y="210" width="16" height="16" transform="rotate(0,378,218)"/><rect x="370" y="274" width="16" height="16" transform="rotate(0,378,282)"/><path d="M 370 290v 16h 16v -8a 8 8, 0, 0, 0, -8 -8" transform="rotate(180,378,298)"/><rect x="370" y="338" width="16" height="16" transform="rotate(0,378,346)"/><circle cx="378" cy="378" r="8" transform="rotate(0,378,378)"/><rect x="370" y="402" width="16" height="16" transform="rotate(0,378,410)"/><rect x="370" y="418" width="16" height="16" transform="rotate(0,378,426)"/><path d="M 370 434v 16h 16v -8a 8 8, 0, 0, 0, -8 -8" transform="rotate(180,378,442)"/><path d="M 386 146v 16h 16v -8a 8 8, 0, 0, 0, -8 -8" transform="rotate(0,394,154)"/><rect x="386" y="162" width="16" height="16" transform="rotate(0,394,170)"/><rect x="386" y="178" width="16" height="16" transform="rotate(0,394,186)"/><rect x="386" y="194" width="16" height="16" transform="rotate(0,394,202)"/><rect x="386" y="210" width="16" height="16" transform="rotate(0,394,218)"/><path d="M 386 226v 16h 8a 8 8, 0, 0, 0, 0 -16" transform="rotate(90,394,234)"/><path d="M 386 258v 16h 8a 8 8, 0, 0, 0, 0 -16" transform="rotate(-90,394,266)"/><rect x="386" y="274" width="16" height="16" transform="rotate(0,394,282)"/><path d="M 386 290v 16h 16v -8a 8 8, 0, 0, 0, -8 -8" transform="rotate(90,394,298)"/><rect x="386" y="338" width="16" height="16" transform="rotate(0,394,346)"/><rect x="386" y="402" width="16" height="16" transform="rotate(0,394,410)"/><path d="M 386 434v 16h 8a 8 8, 0, 0, 0, 0 -16" transform="rotate(0,394,442)"/><path d="M 386 466v 16h 8a 8 8, 0, 0, 0, 0 -16" transform="rotate(180,394,474)"/><rect x="402" y="194" width="16" height="16" transform="rotate(0,410,202)"/><circle cx="410" cy="250" r="8" transform="rotate(0,410,250)"/><rect x="402" y="338" width="16" height="16" transform="rotate(0,410,346)"/><rect x="402" y="354" width="16" height="16" transform="rotate(0,410,362)"/><rect x="402" y="370" width="16" height="16" transform="rotate(0,410,378)"/><rect x="402" y="386" width="16" height="16" transform="rotate(0,410,394)"/><rect x="402" y="402" width="16" height="16" transform="rotate(0,410,410)"/><path d="M 402 418v 16h 8a 8 8, 0, 0, 0, 0 -16" transform="rotate(90,410,426)"/><rect x="402" y="466" width="16" height="16" transform="rotate(0,410,474)"/><circle cx="426" cy="154" r="8" transform="rotate(0,426,154)"/><path d="M 418 178v 16h 8a 8 8, 0, 0, 0, 0 -16" transform="rotate(-90,426,186)"/><path d="M 418 194v 16h 16v -8a 8 8, 0, 0, 0, -8 -8" transform="rotate(90,426,202)"/><path d="M 418 226v 16h 8a 8 8, 0, 0, 0, 0 -16" transform="rotate(180,426,234)"/><path d="M 418 258v 16h 8a 8 8, 0, 0, 0, 0 -16" transform="rotate(-90,426,266)"/><rect x="418" y="274" width="16" height="16" transform="rotate(0,426,282)"/><path d="M 418 290v 16h 8a 8 8, 0, 0, 0, 0 -16" transform="rotate(90,426,298)"/><path d="M 418 322v 16h 16v -8a 8 8, 0, 0, 0, -8 -8" transform="rotate(-90,426,330)"/><rect x="418" y="338" width="16" height="16" transform="rotate(0,426,346)"/><rect x="418" y="354" width="16" height="16" transform="rotate(0,426,362)"/><path d="M 418 370v 16h 16v -8a 8 8, 0, 0, 0, -8 -8" transform="rotate(90,426,378)"/><rect x="418" y="402" width="16" height="16" transform="rotate(0,426,410)"/><rect x="418" y="466" width="16" height="16" transform="rotate(0,426,474)"/><path d="M 434 162v 16h 8a 8 8, 0, 0, 0, 0 -16" transform="rotate(180,442,170)"/><path d="M 434 210v 16h 8a 8 8, 0, 0, 0, 0 -16" transform="rotate(-90,442,218)"/><rect x="434" y="226" width="16" height="16" transform="rotate(0,442,234)"/><path d="M 434 306v 16h 16v -8a 8 8, 0, 0, 0, -8 -8" transform="rotate(-90,442,314)"/><rect x="434" y="322" width="16" height="16" transform="rotate(0,442,330)"/><rect x="434" y="338" width="16" height="16" transform="rotate(0,442,346)"/><path d="M 434 402v 16h 8a 8 8, 0, 0, 0, 0 -16" transform="rotate(0,442,410)"/><path d="M 434 466v 16h 8a 8 8, 0, 0, 0, 0 -16" transform="rotate(0,442,474)"/><path d="M 450 146v 16h 8a 8 8, 0, 0, 0, 0 -16" transform="rotate(-90,458,154)"/><rect x="450" y="162" width="16" height="16" transform="rotate(0,458,170)"/><rect x="450" y="226" width="16" height="16" transform="rotate(0,458,234)"/><circle cx="458" cy="266" r="8" transform="rotate(0,458,266)"/><path d="M 450 290v 16h 16v -8a 8 8, 0, 0, 0, -8 -8" transform="rotate(-90,458,298)"/><rect x="450" y="306" width="16" height="16" transform="rotate(0,458,314)"/><rect x="450" y="322" width="16" height="16" transform="rotate(0,458,330)"/><rect x="450" y="338" width="16" height="16" transform="rotate(0,458,346)"/><path d="M 450 354v 16h 8a 8 8, 0, 0, 0, 0 -16" transform="rotate(90,458,362)"/><circle cx="458" cy="394" r="8" transform="rotate(0,458,394)"/><path d="M 450 418v 16h 8a 8 8, 0, 0, 0, 0 -16" transform="rotate(180,458,426)"/><path d="M 450 450v 16h 8a 8 8, 0, 0, 0, 0 -16" transform="rotate(180,458,458)"/><path d="M 466 162v 16h 8a 8 8, 0, 0, 0, 0 -16" transform="rotate(0,474,170)"/><path d="M 466 226v 16h 16v -8a 8 8, 0, 0, 0, -8 -8" transform="rotate(0,474,234)"/><path d="M 466 242v 16h 8a 8 8, 0, 0, 0, 0 -16" transform="rotate(90,474,250)"/><path d="M 466 290v 16h 8a 8 8, 0, 0, 0, 0 -16" transform="rotate(0,474,298)"/><path d="M 466 338v 16h 8a 8 8, 0, 0, 0, 0 -16" transform="rotate(0,474,346)"/><circle cx="474" cy="378" r="8" transform="rotate(0,474,378)"/><path d="M 466 402v 16h 8a 8 8, 0, 0, 0, 0 -16" transform="rotate(-90,474,410)"/><path d="M 466 418v 16h 16v -8a 8 8, 0, 0, 0, -8 -8" transform="rotate(90,474,426)"/><path d="M 466 450v 16h 8a 8 8, 0, 0, 0, 0 -16" transform="rotate(0,474,458)"/><path clip-rule="evenodd" d="M 18 58v 32a 40 40, 0, 0, 0, 40 40h 32a 40 40, 0, 0, 0, 40 -40v -32a 40 40, 0, 0, 0, -40 -40h -32a 40 40, 0, 0, 0, -40 40M 58 34h 32a 24 24, 0, 0, 1, 24 24v 32a 24 24, 0, 0, 1, -24 24h -32a 24 24, 0, 0, 1, -24 -24v -32a 24 24, 0, 0, 1, 24 -24" transform="rotate(0,74,74)"/><rect x="50" y="50" width="48" height="48" transform="rotate(0,74,74)"/><path clip-rule="evenodd" d="M 370 58v 32a 40 40, 0, 0, 0, 40 40h 32a 40 40, 0, 0, 0, 40 -40v -32a 40 40, 0, 0, 0, -40 -40h -32a 40 40, 0, 0, 0, -40 40M 410 34h 32a 24 24, 0, 0, 1, 24 24v 32a 24 24, 0, 0, 1, -24 24h -32a 24 24, 0, 0, 1, -24 -24v -32a 24 24, 0, 0, 1, 24 -24" transform="rotate(90,426,74)"/><rect x="402" y="50" width="48" height="48" transform="rotate(90,426,74)"/><path clip-rule="evenodd" d="M 18 410v 32a 40 40, 0, 0, 0, 40 40h 32a 40 40, 0, 0, 0, 40 -40v -32a 40 40, 0, 0, 0, -40 -40h -32a 40 40, 0, 0, 0, -40 40M 58 386h 32a 24 24, 0, 0, 1, 24 24v 32a 24 24, 0, 0, 1, -24 24h -32a 24 24, 0, 0, 1, -24 -24v -32a 24 24, 0, 0, 1, 24 -24" transform="rotate(-90,74,426)"/><rect x="50" y="402" width="48" height="48" transform="rotate(-90,74,426)"/></clipPath></defs><rect x="0" y="0" height="500" width="500" clip-path="url('#clip-path-background-color')" fill="#fff"/><rect x="0" y="0" height="500" width="500" clip-path="url('#clip-path-dot-color')" fill="#000000"/></svg>